<svg height="23" viewBox="0 0 26 23" width="26" xmlns="http://www.w3.org/2000/svg">
  <path d="M18.5649 21.8018C11.6968 25.1688 4.19652 20.651 0.514813 17.8373C-0.407242 17.1322 -0.0227809 15.7001 1.14038 15.523C10.6346 14.0782 18.7604 10.2749 25.0063 3.24055C25.2897 2.92124 25.8273 3.0888 25.8664 3.50612C26.1988 7.01856 26.5344 17.891 18.5649 21.7986V21.8018Z" />
  <path d="M8.68627 10.5974C8.68627 13.3005 10.9442 15.4882 13.7266 15.4882H19.4805C20.9532 15.4882 22.1489 16.6454 22.1489 18.0775C22.1489 19.5065 20.9564 20.6668 19.4805 20.6668H13.0392C7.30808 20.6668 2.66522 16.1585 2.66522 10.6005C2.66522 5.03944 7.31134 0.534286 13.0392 0.534286H19.4805C20.9532 0.534286 22.1489 1.6914 22.1489 3.12356C22.1489 4.55257 20.9564 5.71284 19.4805 5.71284H13.7266C10.9409 5.71284 8.68627 7.90377 8.68627 10.6037V10.5974Z" />
  <path d="M19.4805 21.1916H13.0391C11.5665 21.1916 10.1361 20.9102 8.78726 20.3601C7.48726 19.8258 6.31758 19.0639 5.31733 18.0902C4.31383 17.1164 3.52861 15.9846 2.97799 14.7232C2.40781 13.4175 2.12109 12.0296 2.12109 10.5974C2.12109 9.16522 2.41107 7.78048 2.97799 6.47161C3.52861 5.21017 4.31383 4.07519 5.31733 3.1046C6.32084 2.13086 7.48726 1.36893 8.78726 0.834636C10.1329 0.281372 11.5632 0.00315857 13.0391 0.00315857H19.4805C21.2497 0.00315857 22.693 1.40055 22.693 3.12041C22.693 4.84027 21.2529 6.23766 19.4805 6.23766H13.7266C11.2472 6.23766 9.23037 8.19464 9.23037 10.6005C9.23037 13.0065 11.2472 14.9634 13.7266 14.9634H19.4805C21.2497 14.9634 22.693 16.3608 22.693 18.0807C22.693 19.8005 21.2529 21.1979 19.4805 21.1979V21.1916ZM13.0391 1.05594C7.61759 1.05594 3.20931 5.33663 3.20931 10.5942C3.20931 15.8518 7.62084 20.1325 13.0391 20.1325H19.4805C20.6502 20.1325 21.6015 19.2093 21.6015 18.0744C21.6015 16.9394 20.6502 16.0162 19.4805 16.0162H13.7266C10.6477 16.0162 8.13889 13.585 8.13889 10.5942C8.13889 7.6066 10.6444 5.17223 13.7266 5.17223H19.4805C20.6502 5.17223 21.6015 4.24907 21.6015 3.11409C21.6015 1.9791 20.6502 1.05594 19.4805 1.05594H13.0391Z" />
</svg>
